<svg width="16" height="16" viewBox="0 0 16 16" fill="none" xmlns="http://www.w3.org/2000/svg">
<path d="M9.26103 3.41651C8.60926 2.63893 7.39012 2.63895 6.73838 3.41657L4.28355 6.3455C4.10617 6.55714 4.13395 6.8725 4.34558 7.04988C4.55722 7.22726 4.87258 7.19949 5.04997 6.98785L7.50479 4.05892C7.75687 3.75815 8.24258 3.75815 8.49467 4.05892L10.9503 6.98791C11.1277 7.19952 11.443 7.22725 11.6547 7.04984C11.8663 6.87242 11.894 6.55706 11.7166 6.34545L9.26103 3.41651Z" fill="#AAAAAA"/>
<path d="M5.04997 9.01217C4.87258 8.80053 4.55722 8.77276 4.34558 8.95014C4.13395 9.12752 4.10617 9.44288 4.28355 9.65452L6.73838 12.5835C7.39012 13.3611 8.60926 13.3611 9.26103 12.5835L11.7166 9.65458C11.894 9.44296 11.8663 9.1276 11.6547 8.95019C11.443 8.77277 11.1277 8.8005 10.9503 9.01211L8.49471 11.941C8.24263 12.2418 7.75687 12.2419 7.50479 11.9411L5.04997 9.01217Z" fill="#AAAAAA"/>
</svg>
