<svg width="16" height="16" viewBox="0 0 16 16" fill="none" xmlns="http://www.w3.org/2000/svg">
<path fill-rule="evenodd" clip-rule="evenodd" d="M3.6665 1.16666C2.28579 1.16666 1.1665 2.28594 1.1665 3.66666V4.99999C1.1665 6.3807 2.28579 7.49999 3.6665 7.49999H4.99984C6.38055 7.49999 7.49984 6.3807 7.49984 4.99999V3.66666C7.49984 2.28595 6.38055 1.16666 4.99984 1.16666H3.6665Z" fill="#CC3300"/>
<path opacity="0.4" fill-rule="evenodd" clip-rule="evenodd" d="M3.6665 8.5C2.28579 8.5 1.1665 9.61929 1.1665 11V12.3333C1.1665 13.714 2.28579 14.8333 3.6665 14.8333H4.99984C6.38055 14.8333 7.49984 13.714 7.49984 12.3333V11C7.49984 9.61929 6.38055 8.5 4.99984 8.5H3.6665Z" fill="#CC3300"/>
<path opacity="0.4" fill-rule="evenodd" clip-rule="evenodd" d="M11 1.16666C9.61929 1.16666 8.5 2.28594 8.5 3.66666V4.99999C8.5 6.3807 9.61929 7.49999 11 7.49999H12.3333C13.714 7.49999 14.8333 6.3807 14.8333 4.99999V3.66666C14.8333 2.28595 13.714 1.16666 12.3333 1.16666H11Z" fill="#CC3300"/>
<path fill-rule="evenodd" clip-rule="evenodd" d="M11 8.5C9.61929 8.5 8.5 9.61929 8.5 11V12.3333C8.5 13.714 9.61929 14.8333 11 14.8333H12.3333C13.714 14.8333 14.8333 13.714 14.8333 12.3333V11C14.8333 9.61929 13.714 8.5 12.3333 8.5H11Z" fill="#CC3300"/>
</svg>
