<svg width="16" height="16" viewBox="0 0 16 16" fill="none" xmlns="http://www.w3.org/2000/svg">
<path d="M8.50016 2.33333C8.50016 2.05719 8.27631 1.83333 8.00016 1.83333C7.72402 1.83333 7.50016 2.05719 7.50016 2.33333V7.5H2.3335C2.05735 7.5 1.8335 7.72386 1.8335 8C1.8335 8.27614 2.05735 8.5 2.3335 8.5H7.50016V13.6667C7.50016 13.9428 7.72402 14.1667 8.00016 14.1667C8.27631 14.1667 8.50016 13.9428 8.50016 13.6667V8.5H13.6668C13.943 8.5 14.1668 8.27614 14.1668 8C14.1668 7.72386 13.943 7.5 13.6668 7.5H8.50016V2.33333Z" fill="white"/>
</svg>
