<svg width="16" height="16" viewBox="0 0 16 16" fill="none" xmlns="http://www.w3.org/2000/svg">
<path fill-rule="evenodd" clip-rule="evenodd" d="M3.6665 14.8333C2.28579 14.8333 1.1665 13.7141 1.1665 12.3333V11C1.1665 9.6193 2.28579 8.50001 3.6665 8.50001L12.3332 8.50001C13.7139 8.50001 14.8332 9.6193 14.8332 11V12.3333C14.8332 13.7141 13.7139 14.8333 12.3332 14.8333H3.6665ZM2.1665 12.3333C2.1665 13.1618 2.83808 13.8333 3.6665 13.8333L12.3332 13.8333C13.1616 13.8333 13.8332 13.1618 13.8332 12.3333V11C13.8332 10.1716 13.1616 9.50001 12.3332 9.50001L3.6665 9.50001C2.83808 9.50001 2.1665 10.1716 2.1665 11V12.3333Z" fill="#363636"/>
<path fill-rule="evenodd" clip-rule="evenodd" d="M3.6665 7.50001C2.28579 7.50001 1.1665 6.38072 1.1665 5.00001V3.66668C1.1665 2.28596 2.28579 1.16668 3.6665 1.16668H12.3332C13.7139 1.16668 14.8332 2.28596 14.8332 3.66668V5.00001C14.8332 6.38072 13.7139 7.50001 12.3332 7.50001L3.6665 7.50001ZM2.1665 5.00001C2.1665 5.82844 2.83808 6.50001 3.6665 6.50001H12.3332C13.1616 6.50001 13.8332 5.82844 13.8332 5.00001V3.66668C13.8332 2.83825 13.1616 2.16668 12.3332 2.16668H3.6665C2.83808 2.16668 2.1665 2.83825 2.1665 3.66668V5.00001Z" fill="#363636"/>
</svg>
