<svg width="33" height="32" viewBox="0 0 33 32" fill="none" xmlns="http://www.w3.org/2000/svg">
<path d="M28.4432 16.6025H16.1739V3.95076H3.67278C2.12028 3.95076 0.857422 5.21361 0.857422 6.76611V20.9471C0.857422 21.4453 1.26293 21.8392 1.74953 21.8392C2.24772 21.8392 2.64164 21.4337 2.64164 20.9471V19.4062C2.64164 18.8965 3.04714 18.4909 3.55692 18.4909H13.3238C13.8335 18.4909 14.239 18.8965 14.239 19.4062V29.1731C14.239 29.6828 13.8335 30.0883 13.3238 30.0883H3.55692C3.04714 30.0883 2.64164 29.6828 2.64164 29.1731V26.798C2.64164 26.2998 2.23613 25.9059 1.74953 25.9059C1.25134 25.9059 0.857422 26.3114 0.857422 26.798V29.1846C0.857422 30.7371 2.12028 32 3.67278 32H26.0913C27.6438 32 28.9067 30.7371 28.9067 29.1846V16.614H28.4432V16.6025ZM14.2506 15.7567C14.2506 16.2433 13.8567 16.6488 13.3585 16.6488H3.53374C3.04714 16.6488 2.64164 16.2549 2.64164 15.7567V6.58074C2.64164 6.09414 3.03555 5.68863 3.53374 5.68863H13.3585C13.8451 5.68863 14.2506 6.08255 14.2506 6.58074V15.7567ZM27.1224 29.1615C27.1224 29.6713 26.7169 30.0768 26.2072 30.0768H16.4403C15.9306 30.0768 15.5251 29.6713 15.5251 29.1615V19.3946C15.5251 18.8849 15.9306 18.4794 16.4403 18.4794H26.2072C26.7169 18.4794 27.1224 18.8849 27.1224 19.3946V29.1615Z" fill="#363636"/>
<path d="M29.6593 0H17.332V14.8182H32.4747V2.81535C32.4747 1.26285 31.2118 0 29.6593 0ZM30.7021 12.2925C30.7021 12.8023 30.2965 13.2078 29.7868 13.2078H20.0199C19.5102 13.2078 19.1047 12.8023 19.1047 12.2925V2.5257C19.1047 2.01593 19.5102 1.61043 20.0199 1.61043H29.7868C30.2965 1.61043 30.7021 2.01593 30.7021 2.5257V12.2925Z" fill="#363636"/>
<path d="M4.13574 7.20638H14.2617V15.861C14.2617 16.2896 13.9142 16.6488 13.4739 16.6488H4.13574V7.20638Z" fill="#E8A18A"/>
<path d="M4.13574 20.1129H14.2617V29.3005C14.2617 29.7407 13.9026 30.1115 13.4507 30.1115H4.13574V20.1129Z" fill="#E8A18A"/>
<path d="M17.1699 20.1129H27.1221V29.3121C27.1221 29.7523 26.763 30.1115 26.3227 30.1115H17.1699V20.1129Z" fill="#E8A18A"/>
<path d="M20.6807 3.20926H30.7024V12.3968C30.7024 12.8371 30.3432 13.1962 29.903 13.1962H20.6807V3.19768V3.20926Z" fill="#CC3300"/>
</svg>
