<?xml version="1.0" encoding="UTF-8"?>
<svg id="Layer_1" xmlns="http://www.w3.org/2000/svg" version="1.1" viewBox="0 0 350 75">
  <!-- Generator: Adobe Illustrator 29.3.1, SVG Export Plug-In . SVG Version: 2.1.0 Build 151)  -->
  <defs>
    <style>
      .st0 {
        fill: #333;
      }

      .st1 {
        fill: #c30;
      }
    </style>
  </defs>
  <g>
    <g>
      <polygon class="st0" points="-303.62 47.97 -299.2 26.71 -309.35 26.68 -310.43 31.66 -318.54 31.66 -317.53 26.68 -327.54 25.63 -332.23 47.97 -321.9 47.97 -320.19 39.81 -312.09 39.81 -313.72 47.97 -303.62 47.97"/>
      <path class="st1" d="M-315.19,14.79l-9.87-1.21-1.59,7.63,9.99,1.08c15.89,1.76,17.46,4.42,17.46,4.42,0,0-3.57-10.11-16-11.91Z"/>
    </g>
    <path class="st0" d="M-263.78,30.34l-2.87,15.34c-.12.73-.37,1.31-.72,1.72-.29.33-.67.56-1.19.7-.64.17-4.92.26-4.92.26l3.11,5.23h1.17c2.26,0,4.27-.26,5.97-.76,1.74-.52,3.17-1.29,4.24-2.29,1.06-.99,1.72-2.2,1.97-3.6l3.11-16.6h-9.87Z"/>
    <path class="st0" d="M-249.89,45.67c-.12.73-.37,1.31-.72,1.72-.29.33-.67.56-1.19.7-.64.17-4.92.26-4.92.26l3.11,5.23h1.17c2.26,0,4.27-.26,5.97-.76,1.74-.52,3.17-1.29,4.24-2.29,1.06-.99,1.72-2.2,1.97-3.6l3.11-16.6h-9.87l-2.87,15.34Z"/>
    <polygon class="st0" points="-75.71 47.65 -65.84 47.65 -62.6 30.34 -72.47 30.34 -75.71 47.65"/>
    <path class="st0" d="M-269.96,30.34h-17.11c-1.55,0-3.09.28-4.54.82h-.03c-1.99.76-3.67,1.81-4.99,3.13-1.32,1.31-2.14,2.83-2.43,4.5-.11.57-.15,1.11-.13,1.62.05,1.08.41,2.18,1.09,3.27.73,1.18,1.99,2.19,3.75,3,.18.08.4.16.64.25,1.41.48,2.89.71,4.38.71h16.13l3.24-17.31ZM-282.07,41.57h-7.98l1.02-5.48h7.95l-1,5.48Z"/>
    <path class="st0" d="M-207.59,30.34h-18.56c-1.09.19-2.13.46-3.12.84-1.99.75-3.67,1.8-4.99,3.12-1.32,1.31-2.14,2.83-2.43,4.5-.11.57-.15,1.11-.13,1.62.05,1.08.41,2.18,1.09,3.27.73,1.18,1.99,2.19,3.75,3,.94.43,3.17.96,3.17.96h17.98l3.24-17.31ZM-219.7,41.57h-7.98l1.02-5.48h7.95l-1,5.48Z"/>
    <path class="st0" d="M-128.33,30.34h-17.08c-1.57,0-3.13.28-4.6.84h0c-1.99.75-3.67,1.8-4.99,3.12-1.32,1.31-2.14,2.83-2.43,4.5-.11.57-.15,1.11-.13,1.62.05,1.08.41,2.18,1.09,3.27.73,1.18,1.99,2.19,3.75,3,.18.08.4.16.64.25,1.41.48,2.89.71,4.38.71h16.13l3.24-17.31ZM-140.44,41.57h-7.98l1.02-5.48h7.95l-1,5.48Z"/>
    <path class="st0" d="M-105.98,35.15l.94-5.1h-11.2c-1.05.05-2.1.16-3.09.35-1.32.25-2.54.61-3.62,1.07-1.12.47-2.05,1.05-2.76,1.72-.75.7-1.2,1.48-1.35,2.3-.06.28-.09.56-.08.83.02.41.13.85.34,1.31.22.5.64,1,1.24,1.51l.07.05c.71.53,1.69,1,2.91,1.4,1.14.37,2.54.7,4.15.96.94.16,1.71.31,2.28.45.46.11.73.19.88.23h0s-12.73,0-12.73,0l-.94,5.57h13.55c1.13-.12,2.21-.31,3.23-.59,1.77-.48,3.24-1.16,4.38-2,1.18-.88,1.89-1.9,2.1-3.01.06-.29.09-.58.08-.86-.01-.34-.1-.72-.27-1.15-.2-.49-.6-.98-1.22-1.46-.69-.51-1.64-.96-2.83-1.34-1.07-.34-2.39-.64-3.9-.91-1.03-.18-1.85-.35-2.43-.49-.57-.14-.89-.23-1.06-.29-.03-.05-.05-.09-.05-.13h0c.02-.06.06-.11.1-.16.04-.04.1-.08.2-.12.13-.06.32-.1.55-.13.1-.01.2-.02.3-.03h0s10.27.01,10.27.01Z"/>
    <polygon class="st0" points="-189.57 30.34 -204.57 30.34 -207.8 47.65 -198.29 47.65 -196.13 36.1 -190.51 36.1 -189.57 30.34"/>
    <polygon class="st0" points="-245.03 21.53 -246.45 28.37 -236.4 28.37 -234.99 21.53 -245.03 21.53"/>
    <polygon class="st0" points="-70.65 21.53 -72.07 28.37 -62.02 28.37 -60.61 21.53 -70.65 21.53"/>
    <polygon class="st0" points="-262.27 21.53 -263.69 28.37 -253.65 28.37 -252.23 21.53 -262.27 21.53"/>
    <path class="st0" d="M-163.57,31.29c-.18-.08-.4-.16-.64-.25-1.41-.48-2.89-.71-4.38-.71h-6.02l.73-3.63h-9.88l-3.9,20.88h.66l15.87.05c1.65,0,3.29-.24,4.83-.82,0,0,.02,0,.03-.01,1.99-.75,3.67-1.8,4.99-3.12,1.32-1.31,2.14-2.83,2.43-4.5.11-.57.15-1.11.13-1.62-.05-1.08-.41-2.18-1.09-3.27-.73-1.18-1.99-2.19-3.75-3ZM-168.9,41.89h-7.95l.83-4.54.19-.93h7.96l-1.02,5.48Z"/>
    <path class="st0" d="M-77.84,33.26c-.47-.98-1.48-1.78-2.98-2.38-1.12-.45-2.5-.71-4.08-.81l-6.97-.05.62-3.31h-9.78l-3.9,20.94h9.87l2.11-11.55h6.67l-2.11,11.55h9.18l1.89-10.23c.11-.62.15-1.21.12-1.75-.03-.78-.25-1.59-.65-2.41Z"/>
  </g>
  <path class="st0" d="M32.26,69.03s0,0,0,0c0,0,.26,0,0,0Z"/>
  <g>
    <polygon class="st0" points="288.48 45.42 292.64 25.4 283.07 25.38 282.06 30.06 274.42 30.06 275.37 25.38 265.95 24.38 261.53 45.42 271.25 45.42 272.86 37.74 280.49 37.74 278.96 45.42 288.48 45.42"/>
    <path class="st1" d="M277.58,14.17l-9.3-1.14-1.5,7.19,9.41,1.01c14.96,1.66,16.45,4.16,16.45,4.16,0,0-3.36-9.52-15.07-11.22Z"/>
    <g>
      <polygon class="st0" points="215.47 44.91 214.17 51.19 223.41 51.19 224.71 44.91 215.47 44.91"/>
      <polygon class="st0" points="151.56 44.91 150.26 51.19 159.5 51.19 160.8 44.91 151.56 44.91"/>
      <path class="st0" d="M146.91,41.2c1.28,1.15,3.1,1.8,5,1.8h7.54c1.56,0,4.23-.52,6.44-1.77,2.79-1.58,4.55-3.51,4.96-5.43h0s1.12-5.04,1.12-5.04h-8.79l-1.32,6.13h-7.11l2.28-11.35h-9.24l-2.41,11.96c-.3,1.43.24,2.55,1.52,3.69Z"/>
      <path class="st0" d="M191.99,41.29c1.26,1.14,3.19,1.81,5.16,1.81h17.62c1.1,0,2.27-.08,3.39-.23,4.99,0,8.44-3.82,8.44-3.82l.83.94c1.26,1.17,4.56,3.1,9.79,3.1h9.34c2.38,0,4.79-.47,6.74-1.3,2.28-.97,3.91-3.01,4.42-5.43h0s1.91-9.23,1.91-9.23l-23.81.03-1.23,5.45,15.26.03-.82,3.97h-.76s-7.72.01-7.72.01c-2.48.13-7.56-.2-9.87-2.15-1.1-.92-1.28-2.26-.99-3.6l.86-3.85-22.75.14-1.13,5.45,13.46.03-.82,3.97h-.76s-18.71.01-18.71.01l.08-.54.06-.35,2.33-10.25h-9.24l-2.65,11.76c-.29,1.41.27,2.89,1.54,4.03Z"/>
      <polygon class="st0" points="125.64 21.98 126.71 16.77 117.47 16.77 115.03 28.26 132.13 28.26 133.43 21.98 125.64 21.98"/>
      <path class="st0" d="M132.28,42.98h1.97c3.91,0,6.41-1.8,7.71-4.58h0s1.58-7.84,1.58-7.84h-9.24l-1.12,6.19h-2.97s1.16-6.19,1.16-6.19h-9.24l-1.12,6.19h-7.8s1.16-6.19,1.16-6.19h-9.24l-1.06,5.88-7.73-.04c-6.23,0-7.72,2.92-7.98,3.59l-2.49,13.06h39.67l1.39-6.33-32.76.11.85-3.77,5.64-.07c1.67,0,4.21-.14,4.63-.16,1.86-.31,3.51-1.03,4.78-2.1l1.48-1.25h0c.1,1.16.81,2.17,1.86,2.66.91.43,1.99.85,2.75.85h4.42c3.4,0,6.01-.49,7.41-2.27l1.52-1.94.2,2.34c.09,1.03,1.24,1.86,2.57,1.86Z"/>
    </g>
    <path class="st0" d="M178.92,30.55l-1.16,4.49c-.71,3.28-2.29,7.38-7.01,7.88l-2.9.22-1.4,8.05h.26c10.22,0,18.3-6.61,20.1-14.3l1.31-6.33h-9.19Z"/>
  </g>
</svg>